<svg width="30" height="30" viewBox="0 0 30 30" fill="none" xmlns="http://www.w3.org/2000/svg">
<path d="M15 16.25C15.7479 16.25 16.4787 16.4736 17.0985 16.892C17.7184 17.3105 18.1989 17.9048 18.4784 18.5985C18.758 19.2922 18.8237 20.0536 18.6671 20.7849C18.5106 21.5162 18.139 22.184 17.6 22.7025L15.2125 25H18.75V27.5H11.25V25.345L15.8663 20.9013C16.0152 20.7581 16.1263 20.5802 16.1897 20.3836C16.2531 20.1869 16.2668 19.9776 16.2295 19.7744C16.1922 19.5712 16.1051 19.3804 15.976 19.2191C15.8469 19.0578 15.6799 18.931 15.4898 18.85C15.2997 18.7691 15.0925 18.7365 14.8867 18.7552C14.681 18.7739 14.4831 18.8434 14.3107 18.9573C14.1384 19.0712 13.9969 19.2261 13.8991 19.4081C13.8012 19.59 13.75 19.7934 13.75 20H11.25C11.25 19.0054 11.6451 18.0516 12.3484 17.3484C13.0516 16.6451 14.0054 16.25 15 16.25ZM22.5 16.25V21.25H25V16.25H27.5V27.5H25V23.75H20V16.25H22.5ZM5 15C4.99846 16.4995 5.33479 17.9801 5.984 19.3317C6.63321 20.6834 7.57862 21.8714 8.75 22.8075V25.8275C6.84901 24.7307 5.27049 23.1525 4.1733 21.2517C3.07611 19.351 2.49898 17.1947 2.5 15H5ZM15 2.50001C21.4813 2.50001 26.8113 7.43376 27.4375 13.75H24.9225C24.6684 11.7347 23.8066 9.84449 22.4518 8.33096C21.097 6.81744 19.3134 5.75233 17.3385 5.27734C15.3635 4.80235 13.2907 4.94001 11.3958 5.67201C9.501 6.404 7.87399 7.69561 6.73125 9.37501H10V11.875H2.5V4.37501H5V7.50001C6.16299 5.94611 7.67251 4.68502 9.40851 3.81702C11.1445 2.94902 13.0591 2.49806 15 2.50001Z" fill="#000E42"/>
</svg>
