<svg width="30" height="30" viewBox="0 0 30 30" fill="none" xmlns="http://www.w3.org/2000/svg">
<path d="M8.75 28.75C8.0625 28.75 7.47417 28.5054 6.985 28.0163C6.495 27.5263 6.25 26.9375 6.25 26.25V3.75C6.25 3.0625 6.495 2.47375 6.985 1.98375C7.47417 1.49458 8.0625 1.25 8.75 1.25H21.25C21.9375 1.25 22.5263 1.49458 23.0163 1.98375C23.5054 2.47375 23.75 3.0625 23.75 3.75V26.25C23.75 26.9375 23.5054 27.5263 23.0163 28.0163C22.5263 28.5054 21.9375 28.75 21.25 28.75H8.75ZM8.75 22.5H21.25V7.5H8.75V22.5Z" fill="#000E42"/>
</svg>
