<svg width="30" height="30" viewBox="0 0 30 30" fill="none" xmlns="http://www.w3.org/2000/svg">
<path d="M7.92188 6.87891L6.39258 11.25H23.6074L22.0781 6.87891C21.8145 6.12891 21.1055 5.625 20.3086 5.625H9.69141C8.89453 5.625 8.18555 6.12891 7.92188 6.87891ZM2.32031 11.5312L4.38281 5.64258C5.17383 3.38672 7.30078 1.875 9.69141 1.875H20.3086C22.6992 1.875 24.8262 3.38672 25.6172 5.64258L27.6797 11.5312C29.0391 12.0938 30 13.4355 30 15V26.25C30 27.2871 29.1621 28.125 28.125 28.125H26.25C25.2129 28.125 24.375 27.2871 24.375 26.25V23.4375H5.625V26.25C5.625 27.2871 4.78711 28.125 3.75 28.125H1.875C0.837891 28.125 0 27.2871 0 26.25V15C0 13.4355 0.960937 12.0938 2.32031 11.5312ZM7.5 16.875C7.5 15.8379 6.66211 15 5.625 15C4.58789 15 3.75 15.8379 3.75 16.875C3.75 17.9121 4.58789 18.75 5.625 18.75C6.66211 18.75 7.5 17.9121 7.5 16.875ZM24.375 18.75C25.4121 18.75 26.25 17.9121 26.25 16.875C26.25 15.8379 25.4121 15 24.375 15C23.3379 15 22.5 15.8379 22.5 16.875C22.5 17.9121 23.3379 18.75 24.375 18.75Z" fill="#000E42"/>
</svg>
