<svg width="64" height="64" viewBox="0 0 64 64" fill="none" xmlns="http://www.w3.org/2000/svg">
<path d="M21.3333 32H42.6667V37.3333H21.3333V32ZM26.6667 53.3333H16V10.6667H34.6667V24H48V32.2667L53.3333 26.9333V21.3333L37.3333 5.33334H16C14.5855 5.33334 13.2289 5.89524 12.2288 6.89543C11.2286 7.89563 10.6667 9.25218 10.6667 10.6667V53.3333C10.6667 54.7478 11.2286 56.1044 12.2288 57.1046C13.2289 58.1048 14.5855 58.6667 16 58.6667H26.6667V53.3333ZM21.3333 48H32.2667L34.6667 45.6V42.6667H21.3333V48ZM53.8667 34.6667C54.1333 34.6667 54.6667 34.9333 54.9333 35.2L58.4 38.6667C58.9333 39.2 58.9333 40.2667 58.4 40.8L55.7333 43.4667L50.1333 37.8667L52.8 35.2C53.0667 34.9333 53.3333 34.6667 53.8667 34.6667ZM53.8667 45.0667L37.6 61.3333H32V55.7333L48.2667 39.4667L53.8667 45.0667Z" fill="#000E42"/>
</svg>
