<svg width="34" height="34" viewBox="0 0 34 34" fill="none" xmlns="http://www.w3.org/2000/svg">
<path d="M29.6749 11.7655C29.6606 10.6925 29.4598 9.63024 29.0813 8.62614C28.7532 7.77919 28.2519 7.01001 27.6097 6.36774C26.9674 5.72547 26.1982 5.22423 25.3513 4.89606C24.3601 4.52398 23.3129 4.32279 22.2544 4.30106C20.8916 4.24014 20.4595 4.22314 17 4.22314C13.5405 4.22314 13.0971 4.22314 11.7442 4.30106C10.6862 4.32295 9.6395 4.52414 8.64876 4.89606C7.80167 5.224 7.03237 5.72516 6.39007 6.36746C5.74777 7.00976 5.24662 7.77906 4.91867 8.62614C4.54585 9.61658 4.3451 10.6635 4.32509 11.7216C4.26417 13.0858 4.24576 13.5179 4.24576 16.9774C4.24576 20.4369 4.24576 20.8789 4.32509 22.2332C4.34634 23.2929 4.54609 24.3384 4.91867 25.3315C5.24717 26.1783 5.74869 26.9473 6.39121 27.5893C7.03372 28.2314 7.8031 28.7323 8.65018 29.0601C9.63821 29.4472 10.685 29.6628 11.7456 29.6976C13.1098 29.7586 13.5419 29.777 17.0014 29.777C20.4609 29.777 20.9043 29.777 22.2573 29.6976C23.3157 29.6768 24.3629 29.4761 25.3541 29.1041C26.2008 28.7755 26.9698 28.2741 27.612 27.6319C28.2543 26.9897 28.7556 26.2207 29.0842 25.374C29.4568 24.3823 29.6565 23.3368 29.6778 22.2757C29.7387 20.9129 29.7571 20.4808 29.7571 17.0199C29.7543 13.5604 29.7543 13.1212 29.6749 11.7655ZM16.9915 23.5196C13.3733 23.5196 10.4423 20.5885 10.4423 16.9703C10.4423 13.3521 13.3733 10.4211 16.9915 10.4211C18.7285 10.4211 20.3943 11.1111 21.6225 12.3393C22.8508 13.5675 23.5408 15.2333 23.5408 16.9703C23.5408 18.7073 22.8508 20.3731 21.6225 21.6013C20.3943 22.8296 18.7285 23.5196 16.9915 23.5196ZM23.8014 11.706C23.6008 11.7062 23.4022 11.6668 23.2168 11.5901C23.0314 11.5134 22.863 11.4009 22.7211 11.2591C22.5793 11.1172 22.4668 10.9488 22.3901 10.7635C22.3134 10.5781 22.2741 10.3794 22.2743 10.1788C22.2743 9.97835 22.3137 9.77986 22.3905 9.59466C22.4672 9.40946 22.5796 9.24119 22.7213 9.09944C22.8631 8.9577 23.0314 8.84526 23.2166 8.76855C23.4018 8.69184 23.6003 8.65235 23.8007 8.65235C24.0012 8.65235 24.1997 8.69184 24.3849 8.76855C24.5701 8.84526 24.7383 8.9577 24.8801 9.09944C25.0218 9.24119 25.1343 9.40946 25.211 9.59466C25.2877 9.77986 25.3272 9.97835 25.3272 10.1788C25.3272 11.0231 24.6443 11.706 23.8014 11.706Z" fill="white"/>
<path d="M16.9915 21.2246C19.3411 21.2246 21.2457 19.3199 21.2457 16.9703C21.2457 14.6208 19.3411 12.7161 16.9915 12.7161C14.6419 12.7161 12.7372 14.6208 12.7372 16.9703C12.7372 19.3199 14.6419 21.2246 16.9915 21.2246Z" fill="white"/>
</svg>
