<svg width="64" height="64" viewBox="0 0 64 64" fill="none" xmlns="http://www.w3.org/2000/svg">
<path d="M32.0006 0C21.536 0 12.96 8.5504 12.96 18.9862C12.96 23.0298 14.2515 26.7878 16.4371 29.8765L29.6768 52.7648C31.5309 55.1872 32.7635 54.727 34.3053 52.6368L48.9088 27.7856C49.2032 27.2518 49.4349 26.6835 49.6365 26.103C50.5632 23.8448 51.0397 21.4272 51.0394 18.9862C51.04 8.5504 42.4666 0 32.0006 0ZM32.0006 8.896C37.6365 8.896 42.1178 13.367 42.1178 18.9862C42.1178 24.6054 37.6365 29.0746 32.0006 29.0746C26.3654 29.0746 21.8822 24.6061 21.8822 18.9862C21.8822 13.367 26.3654 8.89664 32.0006 8.89664V8.896Z" fill="#000E42"/>
<path d="M44.1043 31.3011L44.0736 31.3818C44.0832 31.3574 44.0909 31.3325 44.1005 31.3082L44.1043 31.3011ZM21.7638 44.1965C12.7232 45.4739 6.39999 48.5299 6.39999 53.0285C6.39999 59.088 16.9651 64 32 64C47.0349 64 57.6 59.088 57.6 53.0285C57.6 48.5299 51.2774 45.4739 42.2374 44.1965L40.985 46.329C47.7984 47.2742 52.48 49.2608 52.48 51.5661C52.48 54.7981 43.3107 57.4176 32 57.4176C20.6893 57.4176 11.52 54.7981 11.52 51.5661C11.5194 49.2685 16.1702 47.2838 23.0048 46.3347C22.592 45.6218 22.1766 44.9101 21.7632 44.1965H21.7638Z" fill="#000E42"/>
</svg>
