<svg width="30" height="30" viewBox="0 0 30 30" fill="none" xmlns="http://www.w3.org/2000/svg">
<path d="M2.5 20V26.1713C2.5 27.5963 6.4175 28.75 11.25 28.75C16.0825 28.75 20 27.595 20 26.1713V20M11.25 6.25C5.7275 6.25 1.25 7.36875 1.25 8.75C1.25 10.1313 5.7275 11.25 11.25 11.25M1.25 8.75V15C1.25 16.2663 5.7275 17.5 11.25 17.5M20 20C24.78 20 28.75 18.7663 28.75 17.5V5M11.4425 5V17.7075M11.25 11.25C11.25 12.5163 15.3162 13.75 20.0962 13.75C24.875 13.75 28.75 12.5163 28.75 11.25M20 20C20 18.6187 16.0825 17.5 11.25 17.5C6.4175 17.5 2.5 18.6187 2.5 20C2.5 21.3813 6.4175 22.5 11.25 22.5C16.0825 22.5 20 21.3813 20 20ZM28.75 5C28.75 3.61875 24.875 2.5 20.0962 2.5C15.3162 2.5 11.4425 3.61875 11.4425 5C11.4425 6.38125 15.3175 7.5 20.0962 7.5C24.875 7.5 28.75 6.38125 28.75 5Z" stroke="#000E42" stroke-width="2"/>
</svg>
