<svg width="24" height="24" viewBox="0 0 24 24" fill="none" xmlns="http://www.w3.org/2000/svg">
<path d="M22.6087 18.4251L17.5275 13.8051C17.2873 13.5867 16.9717 13.4703 16.6472 13.4803C16.3228 13.4904 16.015 13.6261 15.7887 13.8588L12.7975 16.9351C12.0775 16.7976 10.63 16.3463 9.13999 14.8601C7.64999 13.3688 7.19874 11.9176 7.06499 11.2026L10.1387 8.21005C10.3718 7.98396 10.5077 7.67608 10.5177 7.35156C10.5277 7.02704 10.4111 6.71136 10.1925 6.4713L5.57374 1.3913C5.35504 1.1505 5.05108 1.00443 4.72643 0.984129C4.40177 0.963823 4.08198 1.07088 3.83499 1.28255L1.12249 3.6088C0.906375 3.8257 0.777386 4.11437 0.759986 4.42005C0.741236 4.73255 0.383736 12.1351 6.12374 17.8776C11.1312 22.8838 17.4037 23.2501 19.1312 23.2501C19.3837 23.2501 19.5387 23.2426 19.58 23.2401C19.8856 23.2229 20.1741 23.0934 20.39 22.8763L22.715 20.1626C22.9275 19.9163 23.0353 19.5968 23.0155 19.2722C22.9956 18.9475 22.8497 18.6435 22.6087 18.4251Z" fill="white"/>
</svg>
