<svg width="25" height="25" viewBox="0 0 25 25" fill="none" xmlns="http://www.w3.org/2000/svg">
<path d="M18.75 2.34374C18.7503 2.18902 18.7046 2.03771 18.6188 1.90897C18.533 1.78024 18.4108 1.67989 18.2679 1.62064C18.125 1.5614 17.9677 1.54592 17.816 1.57618C17.6642 1.60645 17.5249 1.68108 17.4156 1.79062L14.2906 4.91562C14.2181 4.98831 14.1607 5.07457 14.1215 5.16948C14.0824 5.26439 14.0623 5.36608 14.0625 5.46874V9.83281L12.9047 10.9891C12.6731 10.9276 12.4304 10.9201 12.1955 10.9672C11.9605 11.0143 11.7395 11.1147 11.5494 11.2607C11.3594 11.4066 11.2054 11.5943 11.0993 11.8091C10.9932 12.024 10.9379 12.2604 10.9375 12.5C10.9376 12.7224 10.9852 12.9421 11.077 13.1447C11.1689 13.3472 11.3029 13.5277 11.4701 13.6743C11.6373 13.8209 11.8339 13.9301 12.0467 13.9946C12.2595 14.0591 12.4836 14.0774 12.7041 14.0484C12.9245 14.0194 13.1363 13.9436 13.3251 13.8262C13.5139 13.7087 13.6755 13.5524 13.7991 13.3675C13.9226 13.1826 14.0053 12.9735 14.0416 12.7541C14.0778 12.5347 14.0669 12.3101 14.0094 12.0953L15.1672 10.9375H19.5312C19.6339 10.9377 19.7356 10.9176 19.8305 10.8785C19.9254 10.8393 20.0117 10.7819 20.0844 10.7094L23.2094 7.58437C23.3189 7.4751 23.3935 7.33577 23.4238 7.18404C23.4541 7.03231 23.4386 6.87501 23.3794 6.73208C23.3201 6.58916 23.2198 6.46704 23.091 6.38121C22.9623 6.29539 22.811 6.24972 22.6562 6.24999H18.75V2.34374ZM21.7875 11.2156C22.0564 13.1612 21.7074 15.1421 20.7899 16.8786C19.8723 18.6152 18.4325 20.0198 16.6738 20.894C14.915 21.7683 12.9261 22.0681 10.9878 21.7511C9.04947 21.4341 7.25965 20.5164 5.87098 19.1275C4.48232 17.7385 3.56494 15.9485 3.24835 14.0101C2.93176 12.0718 3.23195 10.0829 4.10655 8.32432C4.98114 6.56573 6.38597 5.12623 8.12271 4.20903C9.85946 3.29183 11.8404 2.94325 13.7859 3.21249L13.1875 3.81093C12.9696 4.02855 12.7967 4.28697 12.6788 4.57143C12.5608 4.85588 12.5001 5.1608 12.5 5.46874C11.1093 5.46874 9.74993 5.88112 8.59365 6.65372C7.43736 7.42633 6.53615 8.52446 6.00397 9.80925C5.47179 11.094 5.33255 12.5078 5.60385 13.8717C5.87516 15.2357 6.54482 16.4885 7.52815 17.4718C8.51149 18.4552 9.76434 19.1248 11.1283 19.3961C12.4922 19.6674 13.9059 19.5282 15.1907 18.996C16.4755 18.4638 17.5737 17.5626 18.3463 16.4063C19.1189 15.2501 19.5312 13.8906 19.5312 12.5C20.1526 12.4994 20.7484 12.2522 21.1875 11.8125L21.7875 11.2156ZM12.5 7.03124C11.4184 7.03124 10.3611 7.35198 9.46173 7.95289C8.56239 8.55381 7.86145 9.40791 7.44753 10.4072C7.03362 11.4065 6.92532 12.5061 7.13633 13.5669C7.34734 14.6277 7.86819 15.6022 8.63301 16.367C9.39783 17.1318 10.3723 17.6527 11.4331 17.8637C12.4939 18.0747 13.5935 17.9664 14.5928 17.5525C15.5921 17.1385 16.4462 16.4376 17.0471 15.5383C17.648 14.6389 17.9688 13.5816 17.9688 12.5H15.8141L15.6187 12.6953C15.5812 13.2956 15.3712 13.8723 15.014 14.3561C14.6568 14.84 14.1675 15.2105 13.605 15.4232C13.0424 15.6359 12.4304 15.6817 11.8424 15.5552C11.2544 15.4287 10.7154 15.1351 10.2901 14.7099C9.86486 14.2846 9.57133 13.7456 9.44479 13.1576C9.31826 12.5696 9.36408 11.9576 9.57677 11.395C9.78947 10.8325 10.16 10.3432 10.6439 9.986C11.1277 9.62879 11.7044 9.41881 12.3047 9.38124L12.5 9.18593V7.03124Z" fill="#000E42"/>
</svg>
