<svg width="30" height="30" viewBox="0 0 30 30" fill="none" xmlns="http://www.w3.org/2000/svg">
<g clip-path="url(#clip0_20_464)">
<path d="M29.3613 23.1855L22.5 16.3242C21.1465 14.9707 19.125 14.707 17.4961 15.5098L11.25 9.26367V5.625L3.75 0L-4.47035e-08 3.75L5.625 11.25H9.26367L15.5098 17.4961C14.7129 19.125 14.9707 21.1465 16.3242 22.5L23.1855 29.3613C24.041 30.2168 25.4238 30.2168 26.2734 29.3613L29.3613 26.2734C30.2109 25.418 30.2109 24.0352 29.3613 23.1855ZM19.4355 13.1836C21.0938 13.1836 22.6523 13.8281 23.8242 15L24.9609 16.1367C25.8867 15.7324 26.7656 15.1699 27.5273 14.4082C29.7012 12.2344 30.4395 9.17578 29.748 6.39844C29.6191 5.87109 28.957 5.68945 28.5703 6.07617L24.2109 10.4355L20.2324 9.77344L19.5703 5.79492L23.9297 1.43555C24.3164 1.04883 24.1289 0.386719 23.5957 0.251953C20.8184 -0.433594 17.7598 0.304688 15.5918 2.47266C13.9219 4.14258 13.1367 6.3457 13.1777 8.54297L17.9883 13.3535C18.4629 13.2422 18.9551 13.1836 19.4355 13.1836ZM13.3477 17.9883L10.0254 14.666L1.0957 23.6016C-0.369141 25.0664 -0.369141 27.4395 1.0957 28.9043C2.56055 30.3691 4.93359 30.3691 6.39844 28.9043L13.6406 21.6621C13.1953 20.4961 13.0605 19.2246 13.3477 17.9883ZM3.75 27.6562C2.97656 27.6562 2.34375 27.0234 2.34375 26.25C2.34375 25.4707 2.9707 24.8438 3.75 24.8438C4.5293 24.8438 5.15625 25.4707 5.15625 26.25C5.15625 27.0234 4.5293 27.6562 3.75 27.6562Z" fill="#000E42"/>
</g>
<defs>
<clipPath id="clip0_20_464">
<rect width="30" height="30" fill="white"/>
</clipPath>
</defs>
</svg>
