<svg width="25" height="25" viewBox="0 0 25 25" fill="none" xmlns="http://www.w3.org/2000/svg">
<path d="M4.1125 13.8729C4.01924 14.1275 3.83038 14.3357 3.58606 14.4533C3.34173 14.5709 3.06119 14.5885 2.80404 14.5025C2.54689 14.4166 2.33341 14.2337 2.20894 13.9928C2.08448 13.7519 2.05885 13.472 2.1375 13.2125C2.11666 13.275 2.1375 13.2104 2.1375 13.2104C2.17454 13.0957 2.21766 12.983 2.26666 12.8729C2.35 12.675 2.47291 12.4021 2.64166 12.0792C2.98541 11.4333 3.52083 10.5729 4.31041 9.7125C5.90416 7.97292 8.51458 6.25 12.5 6.25C16.4854 6.25 19.0958 7.97292 20.6896 9.7125C21.5403 10.6458 22.2302 11.7138 22.7312 12.8729L22.8271 13.1083C22.8333 13.125 22.8542 13.2333 22.875 13.3375L22.9167 13.5417C22.9167 13.5417 23.0917 14.2354 22.2042 14.5292C21.9428 14.6164 21.6575 14.5966 21.4107 14.474C21.1639 14.3514 20.9758 14.136 20.8875 13.875V13.8687L20.875 13.8354C20.7703 13.5678 20.6507 13.3063 20.5167 13.0521C20.1462 12.3532 19.6884 11.7042 19.1542 11.1208C17.8833 9.73542 15.8062 8.33333 12.5 8.33333C9.19375 8.33333 7.11666 9.73542 5.84583 11.1208C5.15779 11.8751 4.59826 12.7373 4.18958 13.6729C4.16772 13.7267 4.14689 13.7809 4.12708 13.8354L4.1125 13.8729ZM8.33333 14.5833C8.33333 13.4783 8.77232 12.4185 9.55372 11.6371C10.3351 10.8557 11.3949 10.4167 12.5 10.4167C13.6051 10.4167 14.6649 10.8557 15.4463 11.6371C16.2277 12.4185 16.6667 13.4783 16.6667 14.5833C16.6667 15.6884 16.2277 16.7482 15.4463 17.5296C14.6649 18.311 13.6051 18.75 12.5 18.75C11.3949 18.75 10.3351 18.311 9.55372 17.5296C8.77232 16.7482 8.33333 15.6884 8.33333 14.5833Z" fill="#000E42"/>
</svg>
