<svg width="64" height="65" viewBox="0 0 64 65" fill="none" xmlns="http://www.w3.org/2000/svg">
<g clip-path="url(#clip0_9_350)">
<path d="M1.36578 31.864C1.36428 37.2833 2.78028 42.5748 5.47278 47.2388L1.10828 63.1743L17.4163 58.8983C21.9268 61.3538 26.9806 62.6404 32.1163 62.6408H32.1298C49.0835 62.6408 62.8843 48.845 62.8915 31.8883C62.8948 23.6715 59.6978 15.945 53.8893 10.132C48.0818 4.31951 40.358 1.11676 32.1285 1.11301C15.1728 1.11301 1.37303 14.908 1.36603 31.864" fill="url(#paint0_linear_9_350)"/>
<path d="M0.2675 31.854C0.26575 37.4683 1.7325 42.949 4.521 47.78L0 64.2868L16.8927 59.8575C21.5472 62.3952 26.7878 63.7332 32.1203 63.7352H32.134C49.696 63.7352 63.9925 49.4432 64 31.8795C64.003 23.3675 60.691 15.3632 54.675 9.342C48.6582 3.3215 40.6582 0.0035 32.134 0C14.569 0 0.27475 14.29 0.26775 31.854H0.2675ZM10.3275 46.948L9.69675 45.9468C7.04525 41.7308 5.64575 36.8587 5.64775 31.856C5.6535 17.2573 17.5345 5.38 32.144 5.38C39.219 5.383 45.868 8.141 50.869 13.145C55.8698 18.1495 58.6215 24.802 58.6198 31.8775C58.6133 46.4762 46.732 58.355 32.134 58.355H32.1235C27.3703 58.3525 22.7085 57.076 18.643 54.6637L17.6755 54.09L7.651 56.7183L10.3275 46.9478V46.948Z" fill="url(#paint1_linear_9_350)"/>
<path d="M24.1695 18.537C23.573 17.2113 22.9453 17.1845 22.378 17.1613C21.9135 17.1413 21.3825 17.1428 20.852 17.1428C20.321 17.1428 19.4583 17.3425 18.729 18.1388C17.999 18.9358 15.942 20.8618 15.942 24.779C15.942 28.6965 18.7953 32.4823 19.193 33.014C19.5913 33.5448 24.7013 41.8408 32.7943 45.0323C39.5203 47.6845 40.889 47.157 42.3488 47.024C43.8088 46.8915 47.0598 45.0985 47.723 43.2393C48.3868 41.3803 48.3868 39.7868 48.1878 39.4538C47.9888 39.122 47.4578 38.9228 46.6615 38.5248C45.865 38.1265 41.9505 36.2003 41.2208 35.9345C40.4908 35.669 39.96 35.5365 39.429 36.3338C38.898 37.1298 37.3733 38.9228 36.9085 39.4538C36.4443 39.986 35.9795 40.0523 35.1835 39.654C34.3868 39.2545 31.8225 38.4148 28.7803 35.7025C26.4133 33.592 24.8153 30.9858 24.3508 30.1885C23.8863 29.3925 24.301 28.961 24.7003 28.5643C25.058 28.2075 25.4968 27.6345 25.8953 27.1698C26.2923 26.7048 26.4248 26.373 26.6903 25.842C26.956 25.3105 26.823 24.8455 26.6243 24.4473C26.4248 24.049 24.8775 20.1115 24.1695 18.5373" fill="white"/>
</g>
<defs>
<linearGradient id="paint0_linear_9_350" x1="31.9999" y1="63.1743" x2="31.9999" y2="1.11301" gradientUnits="userSpaceOnUse">
<stop stop-color="#1FAF38"/>
<stop offset="1" stop-color="#60D669"/>
</linearGradient>
<linearGradient id="paint1_linear_9_350" x1="32" y1="64.2868" x2="32" y2="0" gradientUnits="userSpaceOnUse">
<stop stop-color="#F9F9F9"/>
<stop offset="1" stop-color="white"/>
</linearGradient>
<clipPath id="clip0_9_350">
<rect width="64" height="64.5" fill="white"/>
</clipPath>
</defs>
</svg>
