<svg width="176" height="44" viewBox="0 0 176 44" fill="none" xmlns="http://www.w3.org/2000/svg">
<path d="M14.118 0.26V3.822H9.282V18.512H4.836V3.822H0V0.26H14.118Z" fill="white"/>
<path d="M24.9813 18.694C23.2653 18.694 21.688 18.2953 20.2493 17.498C18.828 16.7007 17.6927 15.5913 16.8433 14.17C16.0113 12.7313 15.5953 11.1193 15.5953 9.334C15.5953 7.54867 16.0113 5.94533 16.8433 4.524C17.6927 3.10267 18.828 1.99333 20.2493 1.196C21.688 0.398667 23.2653 0 24.9813 0C26.6973 0 28.266 0.398667 29.6873 1.196C31.126 1.99333 32.2527 3.10267 33.0673 4.524C33.8993 5.94533 34.3153 7.54867 34.3153 9.334C34.3153 11.1193 33.8993 12.7313 33.0673 14.17C32.2353 15.5913 31.1087 16.7007 29.6873 17.498C28.266 18.2953 26.6973 18.694 24.9813 18.694ZM24.9813 14.638C26.4373 14.638 27.5987 14.1527 28.4653 13.182C29.3493 12.2113 29.7913 10.9287 29.7913 9.334C29.7913 7.722 29.3493 6.43933 28.4653 5.486C27.5987 4.51533 26.4373 4.03 24.9813 4.03C23.508 4.03 22.3293 4.50667 21.4453 5.46C20.5787 6.41333 20.1453 7.70467 20.1453 9.334C20.1453 10.946 20.5787 12.2373 21.4453 13.208C22.3293 14.1613 23.508 14.638 24.9813 14.638Z" fill="white"/>
<path d="M49.9188 0.26V3.822H45.0828V18.512H40.6368V3.822H35.8008V0.26H49.9188Z" fill="white"/>
<path d="M63.5121 15.288H56.7001L55.6081 18.512H50.9541L57.5581 0.26H62.7061L69.3101 18.512H64.6041L63.5121 15.288ZM62.3681 11.856L60.1061 5.174L57.8701 11.856H62.3681Z" fill="white"/>
<path d="M75.766 15.08H81.59V18.512H71.32V0.26H75.766V15.08Z" fill="white"/>
<path d="M102.35 0.26V3.822H97.5144V18.512H93.0684V3.822H88.2324V0.26H102.35Z" fill="white"/>
<path d="M113.89 18.512L110.094 11.622H109.028V18.512H104.582V0.26H112.044C113.482 0.26 114.704 0.511333 115.71 1.014C116.732 1.51667 117.495 2.21 117.998 3.094C118.5 3.96067 118.752 4.93133 118.752 6.006C118.752 7.21933 118.405 8.30267 117.712 9.256C117.036 10.2093 116.03 10.8853 114.696 11.284L118.908 18.512H113.89ZM109.028 8.476H111.784C112.598 8.476 113.205 8.27667 113.604 7.878C114.02 7.47933 114.228 6.916 114.228 6.188C114.228 5.49467 114.02 4.94867 113.604 4.55C113.205 4.15133 112.598 3.952 111.784 3.952H109.028V8.476Z" fill="white"/>
<path d="M125.911 0.26V11.18C125.911 12.272 126.179 13.1127 126.717 13.702C127.254 14.2913 128.043 14.586 129.083 14.586C130.123 14.586 130.92 14.2913 131.475 13.702C132.029 13.1127 132.307 12.272 132.307 11.18V0.26H136.753V11.154C136.753 12.7833 136.406 14.1613 135.713 15.288C135.019 16.4147 134.083 17.264 132.905 17.836C131.743 18.408 130.443 18.694 129.005 18.694C127.566 18.694 126.275 18.4167 125.131 17.862C124.004 17.29 123.111 16.4407 122.453 15.314C121.794 14.17 121.465 12.7833 121.465 11.154V0.26H125.911Z" fill="white"/>
<path d="M139.121 9.36C139.121 7.55733 139.511 5.954 140.291 4.55C141.071 3.12867 142.154 2.028 143.541 1.248C144.945 0.450666 146.531 0.0519993 148.299 0.0519993C150.465 0.0519993 152.32 0.623999 153.863 1.768C155.405 2.912 156.437 4.472 156.957 6.448H152.069C151.705 5.68533 151.185 5.10467 150.509 4.706C149.85 4.30733 149.096 4.108 148.247 4.108C146.877 4.108 145.768 4.58467 144.919 5.538C144.069 6.49133 143.645 7.76533 143.645 9.36C143.645 10.9547 144.069 12.2287 144.919 13.182C145.768 14.1353 146.877 14.612 148.247 14.612C149.096 14.612 149.85 14.4127 150.509 14.014C151.185 13.6153 151.705 13.0347 152.069 12.272H156.957C156.437 14.248 155.405 15.808 153.863 16.952C152.32 18.0787 150.465 18.642 148.299 18.642C146.531 18.642 144.945 18.252 143.541 17.472C142.154 16.6747 141.071 15.574 140.291 14.17C139.511 12.766 139.121 11.1627 139.121 9.36Z" fill="white"/>
<path d="M170.261 18.512L164.125 10.452V18.512H159.679V0.26H164.125V8.268L170.209 0.26H175.435L168.363 9.204L175.695 18.512H170.261Z" fill="white"/>
<path d="M7.488 31.448C7.488 32.44 7.17867 33.2133 6.56 33.768C5.94133 34.312 5.024 34.584 3.808 34.584H1.408V39.512H0.688V28.28H3.808C5.04533 28.28 5.968 28.568 6.576 29.144C7.184 29.7093 7.488 30.4773 7.488 31.448ZM3.808 33.944C5.78133 33.944 6.768 33.112 6.768 31.448C6.768 30.6267 6.53333 30.0027 6.064 29.576C5.59467 29.1387 4.84267 28.92 3.808 28.92H1.408V33.944H3.808Z" fill="white"/>
<path d="M15.4864 39.512L12.6064 34.728H10.1424V39.512H9.42237V28.28H12.5104C13.7584 28.28 14.6917 28.5733 15.3104 29.16C15.9397 29.7467 16.2544 30.5253 16.2544 31.496C16.2544 32.36 16.009 33.0747 15.5184 33.64C15.0384 34.1947 14.3344 34.536 13.4064 34.664L16.3504 39.512H15.4864ZM10.1424 34.12H12.5424C13.5344 34.12 14.2757 33.88 14.7664 33.4C15.257 32.92 15.5024 32.2853 15.5024 31.496C15.5024 29.7787 14.505 28.92 12.5104 28.92H10.1424V34.12Z" fill="white"/>
<path d="M23.3991 39.64C22.3645 39.64 21.4311 39.4 20.5991 38.92C19.7671 38.4293 19.1165 37.7467 18.6471 36.872C18.1778 35.9973 17.9431 35.0107 17.9431 33.912C17.9431 32.8027 18.1778 31.816 18.6471 30.952C19.1165 30.0773 19.7671 29.4 20.5991 28.92C21.4311 28.4293 22.3645 28.184 23.3991 28.184C24.4338 28.184 25.3671 28.4293 26.1991 28.92C27.0311 29.4 27.6818 30.0773 28.1511 30.952C28.6205 31.816 28.8551 32.8027 28.8551 33.912C28.8551 35.0107 28.6205 35.9973 28.1511 36.872C27.6818 37.7467 27.0311 38.4293 26.1991 38.92C25.3671 39.4 24.4338 39.64 23.3991 39.64ZM23.3991 39C24.2845 39 25.0845 38.792 25.7991 38.376C26.5138 37.96 27.0738 37.368 27.4791 36.6C27.8951 35.832 28.1031 34.936 28.1031 33.912C28.1031 32.8773 27.8951 31.976 27.4791 31.208C27.0738 30.44 26.5138 29.848 25.7991 29.432C25.0845 29.016 24.2845 28.808 23.3991 28.808C22.5138 28.808 21.7138 29.016 20.9991 29.432C20.2845 29.848 19.7191 30.44 19.3031 31.208C18.8871 31.976 18.6791 32.8773 18.6791 33.912C18.6791 34.936 18.8871 35.832 19.3031 36.6C19.7191 37.368 20.2845 37.96 20.9991 38.376C21.7138 38.792 22.5138 39 23.3991 39Z" fill="white"/>
<path d="M37.2397 28.28V28.888H34.0397V39.512H33.3198V28.888H30.1197V28.28H37.2397Z" fill="white"/>
<path d="M39.6736 28.888V33.576H44.1536V34.184H39.6736V38.904H44.6336V39.512H38.9536V28.28H44.6336V28.888H39.6736Z" fill="white"/>
<path d="M51.725 38.984C52.8023 38.984 53.709 38.7387 54.445 38.248C55.1917 37.7467 55.725 37.0693 56.045 36.216H56.877C56.5037 37.208 55.9277 38.0027 55.149 38.6C54.3703 39.1867 53.4157 39.5227 52.285 39.608V40.76C52.9357 40.728 53.437 40.8293 53.789 41.064C54.141 41.3093 54.317 41.6667 54.317 42.136C54.317 42.584 54.157 42.9413 53.837 43.208C53.5277 43.4747 53.0903 43.608 52.525 43.608H51.229V43.08H52.397C52.8557 43.08 53.181 43 53.373 42.84C53.5757 42.68 53.677 42.4453 53.677 42.136C53.677 41.5493 53.2503 41.256 52.397 41.256H51.725V39.624C50.7117 39.624 49.7943 39.384 48.973 38.904C48.1623 38.4133 47.5223 37.736 47.053 36.872C46.5943 35.9973 46.365 35.0107 46.365 33.912C46.365 32.8027 46.5943 31.816 47.053 30.952C47.5223 30.0773 48.1623 29.3947 48.973 28.904C49.7943 28.4133 50.7117 28.168 51.725 28.168C53.005 28.168 54.0823 28.4667 54.957 29.064C55.8317 29.6613 56.4717 30.4987 56.877 31.576H56.045C55.725 30.7227 55.1917 30.0507 54.445 29.56C53.709 29.0587 52.8023 28.808 51.725 28.808C50.861 28.808 50.077 29.016 49.373 29.432C48.669 29.8373 48.1143 30.4293 47.709 31.208C47.3037 31.976 47.101 32.8773 47.101 33.912C47.101 34.936 47.3037 35.832 47.709 36.6C48.1143 37.3573 48.669 37.944 49.373 38.36C50.077 38.776 50.861 38.984 51.725 38.984Z" fill="white"/>
<path d="M65.4935 36.632H60.1655L59.0935 39.512H58.3095L62.4375 28.536H63.2375L67.3495 39.512H66.5655L65.4935 36.632ZM65.2695 36.024L62.8375 29.48L60.3895 36.024H65.2695ZM61.0135 27.528C61.0668 27.1227 61.1948 26.808 61.3975 26.584C61.6108 26.36 61.8775 26.248 62.1975 26.248C62.3788 26.248 62.5388 26.2853 62.6775 26.36C62.8162 26.424 62.9708 26.5253 63.1415 26.664C63.3015 26.792 63.4348 26.888 63.5415 26.952C63.6588 27.0053 63.7975 27.032 63.9575 27.032C64.1388 27.032 64.2935 26.968 64.4215 26.84C64.5495 26.712 64.6295 26.5307 64.6615 26.296H65.1415C65.1095 26.68 64.9815 26.9893 64.7575 27.224C64.5335 27.448 64.2615 27.56 63.9415 27.56C63.7388 27.56 63.5628 27.5227 63.4135 27.448C63.2748 27.3733 63.1148 27.2667 62.9335 27.128C62.7842 27.0107 62.6562 26.9253 62.5495 26.872C62.4428 26.808 62.3202 26.776 62.1815 26.776C61.7868 26.776 61.5575 27.0267 61.4935 27.528H61.0135Z" fill="white"/>
<path d="M74.1647 39.64C73.1301 39.64 72.1968 39.4 71.3648 38.92C70.5328 38.4293 69.8821 37.7467 69.4128 36.872C68.9434 35.9973 68.7087 35.0107 68.7087 33.912C68.7087 32.8027 68.9434 31.816 69.4128 30.952C69.8821 30.0773 70.5328 29.4 71.3648 28.92C72.1968 28.4293 73.1301 28.184 74.1647 28.184C75.1994 28.184 76.1328 28.4293 76.9648 28.92C77.7968 29.4 78.4474 30.0773 78.9167 30.952C79.3861 31.816 79.6208 32.8027 79.6208 33.912C79.6208 35.0107 79.3861 35.9973 78.9167 36.872C78.4474 37.7467 77.7968 38.4293 76.9648 38.92C76.1328 39.4 75.1994 39.64 74.1647 39.64ZM74.1647 39C75.0501 39 75.8501 38.792 76.5648 38.376C77.2794 37.96 77.8394 37.368 78.2448 36.6C78.6608 35.832 78.8688 34.936 78.8688 33.912C78.8688 32.8773 78.6608 31.976 78.2448 31.208C77.8394 30.44 77.2794 29.848 76.5648 29.432C75.8501 29.016 75.0501 28.808 74.1647 28.808C73.2794 28.808 72.4794 29.016 71.7647 29.432C71.0501 29.848 70.4847 30.44 70.0687 31.208C69.6527 31.976 69.4447 32.8773 69.4447 33.912C69.4447 34.936 69.6527 35.832 70.0687 36.6C70.4847 37.368 71.0501 37.96 71.7647 38.376C72.4794 38.792 73.2794 39 74.1647 39Z" fill="white"/>
<path d="M94.793 28.28L90.505 39.512H89.705L85.433 28.28H86.217L90.105 38.664L94.025 28.28H94.793Z" fill="white"/>
<path d="M97.2517 28.888V33.576H101.732V34.184H97.2517V38.904H102.212V39.512H96.5318V28.28H102.212V28.888H97.2517Z" fill="white"/>
<path d="M105.111 28.28V39.512H104.391V28.28H105.111Z" fill="white"/>
<path d="M107.302 33.912C107.302 32.8027 107.532 31.816 107.991 30.952C108.46 30.0773 109.1 29.3947 109.91 28.904C110.732 28.4133 111.649 28.168 112.662 28.168C113.942 28.168 115.02 28.4667 115.895 29.064C116.769 29.6613 117.409 30.4987 117.814 31.576H116.982C116.662 30.7227 116.129 30.0507 115.382 29.56C114.646 29.0587 113.74 28.808 112.662 28.808C111.798 28.808 111.015 29.016 110.311 29.432C109.607 29.8373 109.052 30.4293 108.646 31.208C108.241 31.976 108.038 32.8773 108.038 33.912C108.038 34.936 108.241 35.832 108.646 36.6C109.052 37.3573 109.607 37.944 110.311 38.36C111.015 38.776 111.798 38.984 112.662 38.984C113.74 38.984 114.646 38.7387 115.382 38.248C116.129 37.7467 116.662 37.0693 116.982 36.216H117.814C117.409 37.2933 116.769 38.1307 115.895 38.728C115.02 39.3253 113.942 39.624 112.662 39.624C111.649 39.624 110.732 39.384 109.91 38.904C109.1 38.4133 108.46 37.736 107.991 36.872C107.532 35.9973 107.302 35.0107 107.302 33.912Z" fill="white"/>
<path d="M120.719 28.28V35.304C120.719 36.5733 121.007 37.5067 121.583 38.104C122.159 38.6907 122.943 38.984 123.935 38.984C124.916 38.984 125.69 38.6907 126.255 38.104C126.82 37.5173 127.103 36.584 127.103 35.304V28.28H127.823V35.288C127.823 36.7493 127.471 37.8373 126.767 38.552C126.063 39.2667 125.119 39.624 123.935 39.624C122.751 39.624 121.796 39.2667 121.071 38.552C120.356 37.8267 119.999 36.7387 119.999 35.288V28.28H120.719Z" fill="white"/>
<path d="M131.096 38.904H135.271V39.512H130.376V28.28H131.096V38.904Z" fill="white"/>
<path d="M143.275 36.632H137.947L136.875 39.512H136.091L140.219 28.536H141.019L145.131 39.512H144.347L143.275 36.632ZM143.051 36.024L140.619 29.48L138.171 36.024H143.051Z" fill="white"/>
<path d="M153.002 39.512L150.122 34.728H147.658V39.512H146.938V28.28H150.026C151.274 28.28 152.207 28.5733 152.826 29.16C153.455 29.7467 153.77 30.5253 153.77 31.496C153.77 32.36 153.525 33.0747 153.034 33.64C152.554 34.1947 151.85 34.536 150.922 34.664L153.866 39.512H153.002ZM147.658 34.12H150.058C151.05 34.12 151.791 33.88 152.282 33.4C152.773 32.92 153.018 32.2853 153.018 31.496C153.018 29.7787 152.021 28.92 150.026 28.92H147.658V34.12Z" fill="white"/>
</svg>
